<svg width="142" height="142" viewBox="0 0 142 142" fill="none" xmlns="http://www.w3.org/2000/svg">
<path d="M79.9445 45.4546C82.2145 43.1848 85.8508 43.1141 88.206 45.2424L88.4298 45.4551L95.5005 52.5265L95.7131 52.7502C97.7726 55.0297 97.7724 58.5088 95.7127 60.788L95.5 61.0118L81.3572 75.1532L79.236 73.0318L93.3788 58.8903C94.5505 57.7188 94.5505 55.8193 93.379 54.6477L86.3083 47.5763C85.1368 46.4046 83.2373 46.4045 82.0657 47.5761L67.9228 61.7175L65.8016 59.596L79.9445 45.4546Z" fill="#D6D6D6"/>
<path d="M53.552 93.6319C50.0539 93.7703 47.1808 90.897 47.3196 87.3988L48.542 56.5776C48.7468 51.4325 54.8846 48.9528 58.6047 52.4045L58.78 52.573L67.9229 61.7169L65.8015 63.8381L56.6586 54.6942C54.8091 52.8455 51.6437 54.0841 51.5396 56.6972L50.3165 87.5178C50.2471 89.2668 51.6843 90.7042 53.4334 90.635L84.254 89.415C86.8676 89.3115 88.1066 86.146 86.2575 84.2962L77.1147 75.1524L79.2361 73.0311L88.379 82.175C92.0199 85.8168 89.6762 92.0084 84.6157 92.3981L84.3734 92.4126L53.552 93.6319Z" fill="#D6D6D6"/>
</svg>
