<svg width="124" height="124" viewBox="0 0 124 124" fill="none" xmlns="http://www.w3.org/2000/svg">
<mask id="path-1-inside-1_2036_424" fill="white">
<rect x="41" y="6" width="41" height="44" rx="3"/>
</mask>
<rect x="41" y="6" width="41" height="44" rx="3" stroke="#E6E6E6" stroke-width="10" mask="url(#path-1-inside-1_2036_424)"/>
<mask id="path-2-inside-2_2036_424" fill="white">
<rect x="41" y="58" width="41" height="23" rx="2"/>
</mask>
<rect x="41" y="58" width="41" height="23" rx="2" stroke="#E6E6E6" stroke-width="8" mask="url(#path-2-inside-2_2036_424)"/>
<line x1="49" y1="50" x2="49" y2="58" stroke="#E6E6E6" stroke-width="4"/>
<line x1="75" y1="50" x2="75" y2="58" stroke="#E6E6E6" stroke-width="4"/>
<mask id="path-5-inside-3_2036_424" fill="white">
<rect x="50" y="77" width="23" height="41" rx="0.5"/>
</mask>
<rect x="50" y="77" width="23" height="41" rx="0.5" stroke="#E6E6E6" stroke-width="6" mask="url(#path-5-inside-3_2036_424)"/>
<line y1="-1" x2="15" y2="-1" transform="matrix(0.753179 -0.657815 0.627615 0.778524 61 116.867)" stroke="#E6E6E6" stroke-width="2"/>
<line y1="-1" x2="22" y2="-1" transform="matrix(0.753179 -0.657815 0.627615 0.778524 52 112.867)" stroke="#E6E6E6" stroke-width="2"/>
<line x1="53" y1="97.5" x2="71" y2="97.5" stroke="#E6E6E6" stroke-width="3"/>
</svg>
